<?xml version="1.0" encoding="UTF-8" standalone="no"?>
<!DOCTYPE svg PUBLIC "-//W3C//DTD SVG 1.1//EN" "http://www.w3.org/Graphics/SVG/1.1/DTD/svg11.dtd">
<svg width="100%" height="100%" viewBox="0 0 600 400" version="1.1" xmlns="http://www.w3.org/2000/svg" xmlns:xlink="http://www.w3.org/1999/xlink" xml:space="preserve" xmlns:serif="http://www.serif.com/" style="fill-rule:evenodd;clip-rule:evenodd;stroke-linejoin:round;stroke-miterlimit:2;">
    <g transform="matrix(1.47996,0,0,1.47996,300,200)">
        <g transform="matrix(1,0,0,1,-105.99,-87.84)">
            <clipPath id="_clip1">
                <rect x="0" y="0" width="211.98" height="175.68"/>
            </clipPath>
            <g clip-path="url(#_clip1)">
                <g transform="matrix(1.1142,0,0,1.1142,-324.796,-457.94)">
                    <g id="Layer-1" serif:id="Layer 1">
                        <g id="g3094">
                            <path id="path3090" d="M420.4,419.88L420.4,444.683L423.469,442.911L423.469,471.257L426.537,469.486L426.537,441.14L429.606,439.368L429.606,414.565L420.4,419.88ZM405.057,428.738L405.057,453.541L408.126,451.77L408.126,480.116L411.194,478.344L411.194,449.998L414.263,448.226L414.263,423.423L405.057,428.738ZM389.714,437.597L389.714,462.4L392.783,460.628L392.783,488.974L395.851,487.202L395.851,458.856L398.92,457.085L398.92,432.282L389.714,437.597ZM374.371,446.455L374.371,471.258L377.44,469.486L377.44,497.832L380.508,496.061L380.508,467.715L383.577,465.943L383.577,441.14L374.371,446.455ZM359.028,455.313L359.028,480.116L362.097,478.344L362.097,506.69L365.165,504.919L365.165,476.573L368.234,474.801L368.234,449.998L359.028,455.313ZM343.685,464.171L343.685,488.974L346.754,487.203L346.754,515.549L349.822,513.777L349.822,485.431L352.891,483.659L352.891,458.856L343.685,464.171ZM328.342,473.03L328.342,497.833L331.411,496.061L331.411,524.407L334.479,522.635L334.479,494.289L337.548,492.518L337.548,467.715L328.342,473.03ZM312.999,481.888L312.999,506.691L316.068,504.919L316.068,533.265L319.136,531.494L319.136,503.148L322.205,501.376L322.205,476.573L312.999,481.888ZM297.656,490.746L297.656,515.549L300.725,513.778L300.725,542.124L303.793,540.352L303.793,512.006L306.862,510.234L306.862,485.431L297.656,490.746Z" style="fill:url(#_Linear2);fill-rule:nonzero;"/>
                            <path id="path2997" d="M435.74,411.02L291.52,494.288L337.549,520.863L481.769,437.595L435.74,411.02Z" style="fill:url(#_Linear3);fill-rule:nonzero;"/>
                            <path id="path3028" d="M337.53,538.59L337.53,520.871L291.53,494.277L291.53,511.996L337.53,538.59Z" style="fill:url(#_Linear4);fill-rule:nonzero;"/>
                            <path id="path2999" d="M481.78,437.59L337.53,520.871L337.53,538.59L481.78,455.309L481.78,437.59Z" style="fill:url(#_Linear5);fill-rule:nonzero;"/>
                            <path id="path3017" d="M466.43,446.46L466.43,471.263L469.499,469.491L469.499,497.837L472.567,496.066L472.567,467.72L475.636,465.948L475.636,441.145L466.43,446.46ZM451.087,455.318L451.087,480.121L454.156,478.35L454.156,506.696L457.224,504.924L457.224,476.578L460.293,474.806L460.293,450.003L451.087,455.318ZM435.744,464.177L435.744,488.98L438.813,487.208L438.813,515.554L441.881,513.782L441.881,485.436L444.95,483.665L444.95,458.862L435.744,464.177ZM420.401,473.035L420.401,497.838L423.47,496.066L423.47,524.412L426.538,522.641L426.538,494.295L429.607,492.523L429.607,467.72L420.401,473.035ZM405.058,481.893L405.058,506.696L408.127,504.924L408.127,533.27L411.195,531.499L411.195,503.153L414.264,501.381L414.264,476.578L405.058,481.893ZM389.715,490.751L389.715,515.554L392.784,513.783L392.784,542.129L395.852,540.357L395.852,512.011L398.921,510.239L398.921,485.436L389.715,490.751ZM374.372,499.61L374.372,524.413L377.441,522.641L377.441,550.987L380.509,549.215L380.509,520.869L383.578,519.098L383.578,494.295L374.372,499.61ZM359.029,508.468L359.029,533.271L362.098,531.499L362.098,559.845L365.166,558.074L365.166,529.728L368.235,527.956L368.235,503.153L359.029,508.468ZM343.686,517.326L343.686,542.129L346.755,540.358L346.755,568.704L349.823,566.932L349.823,538.586L352.892,536.814L352.892,512.011L343.686,517.326Z" style="fill:url(#_Linear6);fill-rule:nonzero;"/>
                        </g>
                    </g>
                </g>
            </g>
        </g>
    </g>
    <defs>
        <linearGradient id="_Linear2" x1="0" y1="0" x2="1" y2="0" gradientUnits="userSpaceOnUse" gradientTransform="matrix(27.62,47.83,-47.83,27.62,303.791,487.205)"><stop offset="0" style="stop-color:rgb(230,230,230);stop-opacity:1"/><stop offset="0.28" style="stop-color:rgb(153,153,153);stop-opacity:1"/><stop offset="0.33" style="stop-color:rgb(109,109,109);stop-opacity:1"/><stop offset="0.56" style="stop-color:rgb(77,77,77);stop-opacity:1"/><stop offset="0.61" style="stop-color:rgb(118,118,118);stop-opacity:1"/><stop offset="1" style="stop-color:rgb(242,242,242);stop-opacity:1"/></linearGradient>
        <linearGradient id="_Linear3" x1="0" y1="0" x2="1" y2="0" gradientUnits="userSpaceOnUse" gradientTransform="matrix(46.69,-160.84,160.84,46.69,414.26,561.61)"><stop offset="0" style="stop-color:rgb(128,128,128);stop-opacity:1"/><stop offset="0.46" style="stop-color:rgb(51,51,51);stop-opacity:1"/><stop offset="0.5" style="stop-color:rgb(151,151,151);stop-opacity:1"/><stop offset="0.52" style="stop-color:rgb(160,160,160);stop-opacity:1"/><stop offset="1" style="stop-color:rgb(204,204,204);stop-opacity:1"/></linearGradient>
        <linearGradient id="_Linear4" x1="0" y1="0" x2="1" y2="0" gradientUnits="userSpaceOnUse" gradientTransform="matrix(76.71,-8.86,8.86,76.71,285.38,512.01)"><stop offset="0" style="stop-color:rgb(26,26,26);stop-opacity:1"/><stop offset="1" style="stop-color:rgb(204,204,204);stop-opacity:1"/></linearGradient>
        <linearGradient id="_Linear5" x1="0" y1="0" x2="1" y2="0" gradientUnits="userSpaceOnUse" gradientTransform="matrix(-233.21,-14.18,14.18,-233.21,503.25,510.24)"><stop offset="0" style="stop-color:rgb(26,26,26);stop-opacity:1"/><stop offset="1" style="stop-color:rgb(204,204,204);stop-opacity:1"/></linearGradient>
        <linearGradient id="_Linear6" x1="0" y1="0" x2="1" y2="0" gradientUnits="userSpaceOnUse" gradientTransform="matrix(27.62,47.83,-47.83,27.62,349.82,513.78)"><stop offset="0" style="stop-color:rgb(230,230,230);stop-opacity:1"/><stop offset="0.28" style="stop-color:rgb(153,153,153);stop-opacity:1"/><stop offset="0.33" style="stop-color:rgb(109,109,109);stop-opacity:1"/><stop offset="0.56" style="stop-color:rgb(77,77,77);stop-opacity:1"/><stop offset="0.61" style="stop-color:rgb(118,118,118);stop-opacity:1"/><stop offset="1" style="stop-color:rgb(242,242,242);stop-opacity:1"/></linearGradient>
    </defs>
</svg>
