<?xml version="1.0" encoding="UTF-8" standalone="no"?>
<!DOCTYPE svg PUBLIC "-//W3C//DTD SVG 1.1//EN" "http://www.w3.org/Graphics/SVG/1.1/DTD/svg11.dtd">
<svg width="100%" height="100%" viewBox="0 0 128 128" version="1.1" xmlns="http://www.w3.org/2000/svg" xmlns:xlink="http://www.w3.org/1999/xlink" xml:space="preserve" xmlns:serif="http://www.serif.com/" style="fill-rule:evenodd;clip-rule:evenodd;stroke-linejoin:round;stroke-miterlimit:2;">
    <g>
        <path d="M93.3,113C88.3,111.8 81.1,107.2 78.8,103.6L76.6,100.3L47.6,99.8C14.5,99.2 11.8,98.6 7.8,92.1C5.6,88.6 5.5,87.8 5.5,62C5.5,37.8 5.7,35.2 7.4,32.4C10.4,27.3 13.8,26 26.7,24.8C40,23.6 96.8,24.3 103.8,25.8C109,27 112.7,30.2 114,34.9C114.6,36.9 115.4,44.6 115.7,52L116.3,65.5L120.2,69.9C136.8,88.9 118.1,118.9 93.3,113Z" style="fill:rgb(255,0,0);fill-rule:nonzero;"/>
    </g>
    <g>
        <path d="M93.3,113C88.4,111.9 81.4,107.3 78.9,103.7C77.6,102 76.3,100.3 76,100C74.6,98.9 73,92.4 73,87.7C73,71.7 83.8,60.1 98.5,60C107,60 112.7,62 117.2,66.6C122.5,71.9 124.6,75.6 125.9,81.8C129.8,100.6 112.2,117.5 93.3,113ZM118.2,103.3C121.8,99.1 124,93.1 124,87C124,79.8 122.1,74.7 117.7,70.2C113.1,65.4 107,62.4 107,65C107,65.6 107.6,66 108.4,66C111,66 118.8,74 120.6,78.5C123,85 122.2,92.6 118.2,99C116.4,101.8 115,104.3 115,104.6C115,105.6 116.8,104.9 118.2,103.3Z" style="fill:rgb(77,77,77);fill-rule:nonzero;"/>
    </g>
    <g>
        <path d="M91.5,111C89.3,109.9 88.4,109.2 89.5,109.6C90.6,109.9 94.3,110.4 97.7,110.7C112.7,112 124,101.8 124,87C124,79.8 122.1,74.7 117.7,70.2C113.1,65.4 107,62.4 107,65C107,65.6 107.6,66 108.3,66C110.7,66 118.2,73.3 120.1,77.4L121.9,81.5L114.2,83.7C110,84.9 105.2,85.9 103.7,85.9C102.1,86 101.1,86.4 101.5,87C101.8,87.6 101.4,88.3 100.4,88.7C99.4,89.1 98.4,88.7 97.8,87.7C97.2,86.5 95.5,86 92.2,86C86.7,86 80,84.3 80,83C80,82.4 79.6,82 79,82C78.5,82 78,84.3 78,87C78,91.1 78.3,92 79.8,92.1C80.8,92.1 81,92.4 80.3,92.7C78.5,93.4 78.7,95 81,98.8C82.7,101.6 83.3,102 84.5,101C85.3,100.3 86,100.2 86,100.7C86,101.2 84.9,102.3 83.5,103C82.2,103.7 81.4,104.8 81.7,105.4C82.1,106 80.7,104.8 78.7,102.6C74.8,98.5 73.5,95.3 76,95.8C76.8,96 77.1,95.8 76.7,95.3C76.2,94.9 75.3,94.5 74.7,94.5C73.3,94.5 72.6,86.1 73.5,81.3C73.8,79.4 74.7,78 75.5,78C77.5,78 78.3,76.1 77,74.5C74.8,71.9 82.8,63.9 90.3,61.1C94.2,59.6 103.6,59.8 108.9,61.4C113.5,62.7 119.5,68 122.9,73.5C125.8,78.1 126.5,87.7 124.6,94.4C120.6,107.9 103,116.7 91.5,111Z" style="fill:rgb(103,103,103);fill-rule:nonzero;"/>
        <path d="M96,109C96,108.5 97.6,108 99.5,108C101.4,108 103,108.5 103,109C103,109.6 101.4,110 99.5,110C97.6,110 96,109.6 96,109Z" style="fill:rgb(103,103,103);fill-rule:nonzero;"/>
    </g>
    <g>
        <path d="M80.7,102.2C77.2,98.2 75.1,93.4 75,87C75,81.6 76.6,78.4 79,74C83.9,65.1 93.458,60.309 103.2,62.5C109.839,63.993 108.222,65.266 100.2,64.6C93.124,64.013 89.5,66.5 84.2,71C80.9,73.8 77.503,82.4 77.503,87C77.603,90.3 79.014,95.5 81.214,99C82.614,101 83.4,101.9 84.6,100.9C85.4,100.3 86,100.2 86,100.6C86,101.1 85.1,102.1 84.1,102.7C82.6,103.7 81.9,103.6 80.7,102.2Z" style="fill:white;fill-rule:nonzero;"/>
        <path d="M91.8,82L84.5,74.9L92.7,80.2C97.8,83.5 101,86.2 101,87.3C101,90.2 99.5,89.3 91.8,82Z" style="fill:white;fill-rule:nonzero;"/>
        <path d="M49,62C49,46 49.1,44.8 50.8,45.5C52.9,46.3 77,61.1 77.5,61.9C77.8,62.5 52.5,78.3 50.3,78.8C49.3,79.1 49,75.3 49,62Z" style="fill:white;fill-rule:nonzero;"/>
    </g>
</svg>
