<?xml version="1.0" encoding="UTF-8" standalone="no"?>
<!DOCTYPE svg PUBLIC "-//W3C//DTD SVG 1.1//EN" "http://www.w3.org/Graphics/SVG/1.1/DTD/svg11.dtd">
<svg width="100%" height="100%" viewBox="0 0 600 400" version="1.1" xmlns="http://www.w3.org/2000/svg" xmlns:xlink="http://www.w3.org/1999/xlink" xml:space="preserve" xmlns:serif="http://www.serif.com/" style="fill-rule:evenodd;clip-rule:evenodd;stroke-linecap:round;stroke-linejoin:round;stroke-miterlimit:1.5;">
    <g transform="matrix(-0.18741,0.982282,-0.982282,-0.18741,298.84,-61.8434)">
        <path d="M175,35.371L210,150L140,150L175,35.371Z" style="fill:rgb(255,78,249);stroke:white;stroke-width:1px;"/>
    </g>
    <g transform="matrix(-0.681621,0.731706,-0.731706,-0.681621,585.165,249.804)">
        <path d="M175,35.371L210,150L140,150L175,35.371Z" style="fill:rgb(255,78,249);stroke:white;stroke-width:1px;"/>
    </g>
    <g transform="matrix(0.0460194,0.998941,-0.998941,0.0460194,539.965,-72.4742)">
        <path d="M175,35.371L210,150L140,150L175,35.371Z" style="fill:rgb(255,78,249);stroke:white;stroke-width:1px;"/>
    </g>
    <g transform="matrix(-0.453274,0.891371,-0.891371,-0.453274,558.893,93.1992)">
        <path d="M175,35.371L210,150L140,150L175,35.371Z" style="fill:rgb(255,78,249);stroke:white;stroke-width:1px;"/>
    </g>
    <g transform="matrix(-0.464684,0.885477,-0.885477,-0.464684,292.64,171.478)">
        <path d="M175,35.371L210,150L140,150L175,35.371Z" style="fill:rgb(255,78,249);stroke:white;stroke-width:1px;"/>
    </g>
    <circle cx="265.256" cy="58.782" r="11.218" style="fill:rgb(11,226,0);stroke:rgb(7,215,0);stroke-width:1px;"/>
    <g transform="matrix(1,0,0,1,43.5265,80)">
        <circle cx="265.256" cy="58.782" r="11.218" style="fill:rgb(11,226,0);stroke:rgb(7,215,0);stroke-width:1px;"/>
    </g>
    <g transform="matrix(1,0,0,1,275.962,-8.78226)">
        <circle cx="265.256" cy="58.782" r="11.218" style="fill:rgb(11,226,0);stroke:rgb(7,215,0);stroke-width:1px;"/>
    </g>
    <g transform="matrix(1,0,0,1,-136.473,106.687)">
        <circle cx="265.256" cy="58.782" r="11.218" style="fill:rgb(11,226,0);stroke:rgb(7,215,0);stroke-width:1px;"/>
    </g>
    <g transform="matrix(1,0,0,1,-224.038,-27.5645)">
        <circle cx="265.256" cy="58.782" r="11.218" style="fill:rgb(11,226,0);stroke:rgb(7,215,0);stroke-width:1px;"/>
    </g>
    <g transform="matrix(1,0,0,1,-11.2177,302.435)">
        <circle cx="265.256" cy="58.782" r="11.218" style="fill:rgb(11,226,0);stroke:rgb(7,215,0);stroke-width:1px;"/>
    </g>
    <g transform="matrix(1,0,0,1,283.527,150)">
        <circle cx="265.256" cy="58.782" r="11.218" style="fill:rgb(11,226,0);stroke:rgb(7,215,0);stroke-width:1px;"/>
    </g>
    <g transform="matrix(1,0,0,1,295.962,282.435)">
        <circle cx="265.256" cy="58.782" r="11.218" style="fill:rgb(11,226,0);stroke:rgb(7,215,0);stroke-width:1px;"/>
    </g>
    <g transform="matrix(1,0,0,1,105.962,-20)">
        <circle cx="265.256" cy="58.782" r="11.218" style="fill:rgb(255,27,27);stroke:rgb(255,12,12);stroke-width:1px;"/>
    </g>
    <g transform="matrix(1,0,0,1,234.744,220)">
        <circle cx="265.256" cy="58.782" r="11.218" style="fill:rgb(255,27,27);stroke:rgb(255,12,12);stroke-width:1px;"/>
    </g>
    <g transform="matrix(1,0,0,1,-196.473,302.435)">
        <circle cx="265.256" cy="58.782" r="11.218" style="fill:rgb(255,27,27);stroke:rgb(255,12,12);stroke-width:1px;"/>
    </g>
    <g transform="matrix(-0.192026,0.98139,-0.98139,-0.192026,348.318,62.712)">
        <path d="M175,35.371L210,150L140,150L175,35.371Z" style="fill:rgb(255,78,249);stroke:white;stroke-width:1px;"/>
    </g>
</svg>
