<?xml version="1.0" encoding="UTF-8" standalone="no"?>
<!DOCTYPE svg PUBLIC "-//W3C//DTD SVG 1.1//EN" "http://www.w3.org/Graphics/SVG/1.1/DTD/svg11.dtd">
<svg width="100%" height="100%" viewBox="0 0 1024 1024" version="1.1" xmlns="http://www.w3.org/2000/svg" xmlns:xlink="http://www.w3.org/1999/xlink" xml:space="preserve" xmlns:serif="http://www.serif.com/" style="fill-rule:evenodd;clip-rule:evenodd;stroke-linejoin:round;stroke-miterlimit:2;">
    <g>
        <path d="M58,670L58,68L963,68L963,670L58,670Z" style="fill-rule:nonzero;"/>
    </g>
    <g>
        <path d="M37.2,268.8L37.5,55.5L38,53.5L39.5,50.5C41.1,47.6 43.8,46.3 46.5,45C50.6,43 52.7,43 160.3,43C264.1,43 270.5,42.3 270.5,44C270.5,44.9 267.1,51.9 263.6,58.5L257.3,70.5L159.1,70.8L61,71L61,442.6L50.8,462.3C43.4,476.4 40,482 38.7,482C37.1,482 37,471.8 37.2,268.8Z" style="fill:rgb(19,96,110);fill-rule:nonzero;"/>
    </g>
    <g>
        <path d="M622,982L463,982L463,979.8C463,978.5 499.9,907.8 544.9,822.5L626.7,667.5L746.3,667.2C858.5,667 866,667.1 866,668.7C866,670.1 838.7,722.8 817,763.5C812.4,772.1 797.5,800.3 795.2,804.8L793.5,808L623,808L623,895C623,981.3 624,982 622,982Z" style="fill:rgb(56,60,121);fill-rule:nonzero;"/>
        <path d="M960,278.5L960,71L951.5,71C944.4,71 943,70.7 943,69.4C943,68.5 946,62.2 949.6,55.4L956,43.5L963,43.5C974.3,43.5 980.8,47.1 982.9,55.6C983.7,58.6 984,118.1 984,253.3L984,446.7L973.8,466.3C966.4,480.4 963,486 961.8,486C960.1,486 960,475.5 960,278.5Z" style="fill:rgb(56,60,121);fill-rule:nonzero;"/>
    </g>
    <g>
        <path d="M790,806.8C790,806.1 790.9,804 792,802.2C793.1,800.4 793.8,798.5 793.5,797.9C793.1,797.4 793.4,797 794,797C794.6,797 794.8,796.6 794.5,796C794.2,795.5 794.4,795 795,795C795.6,795 795.8,794.6 795.5,794C795.2,793.5 795.4,793 795.9,793C797.2,793 803.1,781.5 802.3,780.6C801.9,780.3 802.2,780 802.9,780C803.6,780 803.8,779.6 803.5,779C803.2,778.5 803.4,778 804,778C804.6,778 804.8,777.6 804.5,777C804.2,776.5 804.4,776 804.9,776C806.2,776 811.1,766.5 810.3,765.6C809.9,765.3 810.2,765 810.9,765C811.6,765 811.9,764.6 811.6,764.1C811.3,763.6 811.7,762.9 812.6,762.6C813.5,762.2 814,761.3 813.6,760.5C813.3,759.7 813.5,759 814,759C815.3,759 822.1,745.4 821.3,744.6C820.9,744.3 821.2,744 821.9,744C822.6,744 822.8,743.6 822.5,743C822.2,742.5 822.4,742 823,742C823.6,742 823.8,741.6 823.5,741C823.2,740.5 823.4,740 823.9,740C825.2,740 831.1,728.5 830.3,727.6C829.9,727.3 830.2,727 830.9,727C831.6,727 831.8,726.6 831.5,726C831.2,725.5 831.4,725 832,725C832.6,725 832.8,724.6 832.5,724C832.2,723.5 832.4,723 832.9,723C834.2,723 842.1,707.5 841.3,706.6C840.9,706.3 841.2,706 841.9,706C842.6,706 842.8,705.6 842.5,705C842.2,704.5 842.4,704 842.9,704C844.2,704 851.1,690.5 850.3,689.6C849.9,689.3 850.2,689 850.9,689C851.6,689 851.8,688.6 851.5,688C851.2,687.5 851.4,687 852,687C852.6,687 852.8,686.6 852.5,686C852.2,685.5 852.4,685 852.9,685C854.2,685 859.1,675.5 858.3,674.6C857.9,674.3 858.2,674 858.9,674C859.6,674 859.8,673.6 859.5,673C859.2,672.5 859.4,672 860,672C860.6,672 860.8,671.6 860.5,671C860.2,670.5 860.4,670 861,670C861.6,670 861.9,669.6 861.6,669.1C861.3,668.6 861.7,667.9 862.6,667.6C863.5,667.3 885.7,667 912.1,667L960,667L960,483.9L962.5,479.1C963.8,476.4 964.6,474 964.3,473.6C963.9,473.3 964.2,473 964.9,473C965.6,473 965.8,472.6 965.5,472C965.2,471.5 965.4,471 966,471C966.6,471 966.8,470.6 966.5,470C966.2,469.5 966.4,469 966.9,469C968.2,469 976.1,453.5 975.3,452.6C974.9,452.3 975.2,452 975.9,452C976.6,452 976.8,451.6 976.5,451C976.2,450.5 976.4,450 977,450C977.6,450 977.8,449.6 977.5,449C977.2,448.5 977.3,448 977.9,448C978.5,448 979.6,446.7 980.5,445C981.4,443.4 982.5,442 983,442C984.5,442 984.3,789.7 982.9,795.4C981.5,800.8 976.6,805.8 971.4,807.1C969.2,807.5 927.6,808 878.8,808C808.4,808 790,807.7 790,806.8Z" style="fill:rgb(47,84,128);fill-rule:nonzero;"/>
    </g>
    <g>
        <path d="M465.5,982L399,982C397,982 398,981.3 398,895L398,808L325.8,808L326.4,805.3C326.8,803.7 327.4,801.3 327.7,799.8C328,798.2 328.7,797 329.4,797C330.8,797 347,765.9 347,763.1C347,761.9 347.6,761 348.3,761C349.8,761 357,746.9 357,744C357,742.9 357.6,742 358.3,742C359.8,742 376,711 376,708.1C376,706.9 376.6,706 377.3,706C378.8,706 395,675 395,672.1C395,670.9 395.6,670 396.4,670C397.2,670 398,669.3 398.4,668.5C398.9,667.2 412.8,667 515.1,667C590.6,667 631.1,667.3 630.8,668C630.7,668.5 593.4,739.4 548,825.5L465.5,982Z" style="fill:rgb(204,55,61);fill-rule:nonzero;"/>
        <path d="M715,70C715,69 717.9,62.1 721.4,55.5L727.8,43.5L844,43.2C954.4,43 959.7,42.9 959,44.5C958.7,45.5 956,52 952.4,58.7L945.9,71L830.4,71C721.2,71 715,71.6 715,70Z" style="fill:rgb(204,55,61);fill-rule:nonzero;"/>
    </g>
    <g>
        <path d="M93,806.7C93,806 109.4,774.4 129.4,736.4L165.7,667.5L284.4,667.2C349.6,667.1 403,667.2 403,667.4C403,669.2 400.4,673 399.3,673C398.5,673 398.2,673.5 398.5,674C399.4,675.4 381.8,709 380.2,709C379.5,709 379.2,709.5 379.5,710C380.4,711.4 362.8,745 361.2,745C360.5,745 360.1,745.4 360.5,745.9C361.3,747.3 352.8,764 351.2,764C350.5,764 350.2,764.5 350.5,765C351.4,766.4 333.8,800 332.2,800C331.5,800 331.2,800.4 331.5,801C331.8,801.5 331.4,803.3 330.5,805L328.9,808L211,808C114.3,808 93,807.8 93,806.7Z" style="fill:rgb(242,120,83);fill-rule:nonzero;"/>
        <path d="M483.5,70.5C483.5,69.6 485,62.2 488.6,55.4L494.5,43L613.6,43C678.7,43 732,43.3 732,43.6C732,43.9 728.8,50.2 724.9,57.6L717.8,71L599.9,71C492.3,71 483.5,72 483.5,70.5Z" style="fill:rgb(242,120,83);fill-rule:nonzero;"/>
    </g>
    <g>
        <path d="M49,806.8C44.9,805.7 41.5,802.8 39.2,798.5C37.6,795.7 37.5,782.3 37.2,637.6L37,479.7L48.7,457.3L60.5,434.9L60.8,551L61,667L115.5,667C145.5,667 170,667.3 170,667.8C169.9,668.2 153.4,699.8 133.2,738L96.5,807.5L74.5,807.7C62.2,807.8 50.9,807.4 49,806.8Z" style="fill:rgb(245,174,70);fill-rule:nonzero;"/>
        <path d="M253,70.5C253,70.2 256.2,63.9 260.1,56.5L267.2,43L383.2,43C493.527,42.957 500.134,42.224 498.5,44C498.2,45 495,52 491.4,58.8L484.9,71L368.9,71C305.2,71 253,70.8 253,70.5Z" style="fill:rgb(245,174,70);fill-rule:nonzero;"/>
    </g>
</svg>
