<?xml version="1.0" encoding="UTF-8" standalone="no"?>
<!DOCTYPE svg PUBLIC "-//W3C//DTD SVG 1.1//EN" "http://www.w3.org/Graphics/SVG/1.1/DTD/svg11.dtd">
<svg width="100%" height="100%" viewBox="0 0 512 257" version="1.1" xmlns="http://www.w3.org/2000/svg" xmlns:xlink="http://www.w3.org/1999/xlink" xml:space="preserve" xmlns:serif="http://www.serif.com/" style="fill-rule:evenodd;clip-rule:evenodd;stroke-linejoin:round;stroke-miterlimit:2;">
    <g transform="matrix(0.891091,0,0,0.891091,16.6136,13.9425)">
        <circle cx="125" cy="128.02" r="110" style="fill:rgb(235,235,235);"/>
    </g>
    <path d="M128.02,0L128.2,0C150.23,0 171.03,5.66 189.2,15.6L399.58,15.6C430.47,15.6 458.58,28.25 478.96,48.64C499.35,68.99 512,97.1 512,128.02C512,158.94 499.34,187.05 478.98,207.42L478.56,207.8C458.22,227.95 430.27,240.44 399.58,240.44L189.24,240.44C171.07,250.37 150.26,256.04 128.2,256.04L128.02,256.04C92.82,256.04 60.8,241.63 37.6,218.44C14.41,195.25 0,163.24 0,128.02C0,92.8 14.4,60.78 37.59,37.59L38.5,36.76C61.65,14.05 93.29,0 128.02,0ZM122.07,54.42C122.07,52.47 122.87,50.69 124.15,49.42C126.89,46.65 131.42,46.66 134.17,49.41L134.31,49.57C135.554,50.878 136.249,52.615 136.25,54.42L136.25,67.37C136.25,69.32 135.45,71.1 134.17,72.38C131.42,75.13 126.9,75.13 124.15,72.38C122.82,71.053 122.071,69.249 122.07,67.37L122.07,54.42ZM128.12,85.59C139.84,85.59 150.44,90.34 158.12,98.02C165.79,105.7 170.55,116.31 170.55,128.02C170.55,139.74 165.8,150.34 158.12,158.02C150.44,165.7 139.84,170.45 128.12,170.45C116.4,170.45 105.8,165.7 98.11,158.02C90.44,150.34 85.68,139.74 85.68,128.02C85.68,116.3 90.44,105.7 98.11,98.02C105.8,90.35 116.41,85.59 128.12,85.59ZM71.79,80.25C70.466,78.919 69.722,77.117 69.72,75.24C69.72,71.34 72.9,68.15 76.81,68.15C78.62,68.15 80.43,68.84 81.81,70.22L90.97,79.38C92.302,80.706 93.051,82.51 93.05,84.39C93.05,86.19 92.35,88.01 90.97,89.4C89.644,90.733 87.84,91.482 85.96,91.48C84.16,91.48 82.35,90.78 80.96,89.41L71.79,80.25ZM54.51,134.06C52.56,134.06 50.78,133.26 49.51,131.98C46.74,129.24 46.75,124.71 49.5,121.97L49.65,121.83C50.96,120.583 52.702,119.888 54.51,119.89L67.45,119.89C67.453,119.89 67.455,119.89 67.458,119.89C71.343,119.89 74.54,123.087 74.54,126.972C74.54,126.975 74.54,126.977 74.54,126.98C74.54,128.93 73.74,130.71 72.47,131.99C71.138,133.317 69.331,134.063 67.45,134.06L54.51,134.06ZM80.33,184.34C79.006,185.667 77.205,186.413 75.33,186.41C71.42,186.41 68.24,183.25 68.24,179.33C68.24,177.52 68.92,175.71 70.31,174.32L79.62,165.03C80.929,163.782 82.671,163.086 84.48,163.09C88.369,163.09 91.57,166.291 91.57,170.18C91.57,171.97 90.88,173.78 89.49,175.17L80.33,184.34ZM134.15,201.63C134.15,203.57 133.35,205.36 132.07,206.63C129.33,209.39 124.8,209.38 122.05,206.63L121.92,206.48C120.675,205.173 119.98,203.435 119.98,201.63L119.98,188.68C119.98,186.72 120.78,184.95 122.05,183.67C124.81,180.92 129.32,180.92 132.08,183.67C133.405,185 134.15,186.803 134.15,188.68L134.15,201.63ZM184.43,175.8C185.759,177.127 186.505,178.932 186.5,180.81C186.5,184.7 183.32,187.9 179.42,187.9C177.61,187.9 175.79,187.21 174.41,185.83L165.25,176.67C163.922,175.338 163.177,173.531 163.18,171.65C163.18,167.75 166.36,164.56 170.26,164.56C172.06,164.56 173.87,165.26 175.26,166.64L184.43,175.8ZM201.72,121.98C203.65,121.98 205.45,122.79 206.72,124.06C209.48,126.81 209.47,131.33 206.72,134.08L206.57,134.22C205.259,135.459 203.524,136.153 201.72,136.16L188.77,136.16C186.81,136.16 185.03,135.36 183.76,134.08C181,131.33 181,126.81 183.76,124.06C185.085,122.727 186.89,121.977 188.77,121.98L201.72,121.98ZM175.89,71.7C177.216,70.375 179.016,69.63 180.89,69.63C184.79,69.63 187.99,72.82 187.99,76.72C187.99,78.53 187.3,80.34 185.92,81.72L176.6,91.03C175.284,92.266 173.546,92.956 171.74,92.96C167.83,92.96 164.65,89.78 164.65,85.87C164.65,84.07 165.35,82.26 166.73,80.87L175.89,71.7ZM210.06,29.83C213.02,32.3 215.87,34.9 218.59,37.63C241.81,60.78 256.22,92.8 256.22,128.02C256.22,163.24 241.8,195.25 218.62,218.44C215.903,221.154 213.067,223.747 210.12,226.21L399.58,226.21C426.41,226.21 450.82,215.3 468.6,197.71L468.92,197.36C486.71,179.57 497.77,155.01 497.77,128.02C497.77,101.03 486.71,76.47 468.92,58.67C451.15,40.87 426.59,29.83 399.58,29.83L210.06,29.83ZM128.02,15.12L128.2,15.12C190.29,15.12 241.09,65.93 241.09,128.02C241.09,190.12 190.23,240.92 128.2,240.92L128.02,240.92C65.99,240.92 15.12,190.12 15.12,128.02C15.12,65.93 65.93,15.12 128.02,15.12Z"/>
</svg>
