<?xml version="1.0" encoding="UTF-8" standalone="no"?>
<!DOCTYPE svg PUBLIC "-//W3C//DTD SVG 1.1//EN" "http://www.w3.org/Graphics/SVG/1.1/DTD/svg11.dtd">
<svg width="100%" height="100%" viewBox="0 0 600 400" version="1.1" xmlns="http://www.w3.org/2000/svg" xmlns:xlink="http://www.w3.org/1999/xlink" xml:space="preserve" xmlns:serif="http://www.serif.com/" style="fill-rule:evenodd;clip-rule:evenodd;stroke-linecap:round;stroke-linejoin:round;stroke-miterlimit:1.5;">
    <g transform="matrix(1,0,0,1,37.9366,0)">
        <g transform="matrix(0.789241,0,0,0.789241,72.6455,4.21517)">
            <rect x="60" y="20" width="360" height="360" style="fill:white;stroke:black;stroke-width:1.27px;"/>
        </g>
        <g transform="matrix(0.789241,0,0,0.789241,38.5603,15.974)">
            <path d="M215.179,50.243C214.562,60.47 215.034,70.794 214.821,81.041C214.704,86.634 219.151,91.269 224.744,91.386C230.337,91.502 234.973,87.056 235.089,81.463C235.297,71.482 234.814,61.425 235.415,51.463C235.751,45.879 231.491,41.072 225.907,40.735C220.322,40.399 215.515,44.659 215.179,50.243Z" style="fill:rgb(15,0,232);"/>
            <path d="M376.595,45.406C376.894,55.331 376.542,65.278 377.078,75.192C377.379,80.779 382.159,85.069 387.745,84.768C393.332,84.466 397.622,79.686 397.321,74.1C396.794,64.346 397.152,54.56 396.858,44.796C396.689,39.204 392.013,34.801 386.421,34.969C380.829,35.138 376.426,39.815 376.595,45.406Z" style="fill:rgb(0,4,228);"/>
            <path d="M150.306,218.296C159.951,260.748 185.972,294.161 229.178,306.236C246.898,311.188 265.513,312.45 283.787,313.598C309.613,315.219 334.834,311.392 359.562,303.94C371.641,300.3 383.687,296.692 394.213,289.54C416.213,274.594 432.974,248.289 442.616,223.862C444.67,218.658 442.113,212.766 436.909,210.712C431.705,208.658 425.813,211.215 423.759,216.419C415.527,237.273 401.603,260.011 382.821,272.771C374.014,278.754 363.819,281.484 353.713,284.529C331.304,291.282 308.461,294.834 285.057,293.365C268.19,292.306 250.99,291.282 234.635,286.712C199.016,276.757 178.026,248.801 170.075,213.804C168.835,208.349 163.4,204.926 157.945,206.166C152.489,207.405 149.066,212.84 150.306,218.296Z" style="fill:rgb(2,11,255);"/>
        </g>
        <g transform="matrix(0.789241,0,0,0.789241,25.291,4.21517)">
            <path d="M215.179,50.243C214.562,60.47 215.034,70.794 214.821,81.041C214.704,86.634 219.151,91.269 224.744,91.386C230.337,91.502 234.973,87.056 235.089,81.463C235.297,71.482 234.814,61.425 235.415,51.463C235.751,45.879 231.491,41.072 225.907,40.735C220.322,40.399 215.515,44.659 215.179,50.243Z"/>
            <path d="M376.595,45.406C376.894,55.331 376.542,65.278 377.078,75.192C377.379,80.779 382.159,85.069 387.745,84.768C393.332,84.466 397.622,79.686 397.321,74.1C396.794,64.346 397.152,54.56 396.858,44.796C396.689,39.204 392.013,34.801 386.421,34.969C380.829,35.138 376.426,39.815 376.595,45.406Z"/>
            <path d="M150.306,218.296C159.951,260.748 185.972,294.161 229.178,306.236C246.898,311.188 265.513,312.45 283.787,313.598C309.613,315.219 334.834,311.392 359.562,303.94C371.641,300.3 383.687,296.692 394.213,289.54C416.213,274.594 432.974,248.289 442.616,223.862C444.67,218.658 442.113,212.766 436.909,210.712C431.705,208.658 425.813,211.215 423.759,216.419C415.527,237.273 401.603,260.011 382.821,272.771C374.014,278.754 363.819,281.484 353.713,284.529C331.304,291.282 308.461,294.834 285.057,293.365C268.19,292.306 250.99,291.282 234.635,286.712C199.016,276.757 178.026,248.801 170.075,213.804C168.835,208.349 163.4,204.926 157.945,206.166C152.489,207.405 149.066,212.84 150.306,218.296Z"/>
        </g>
    </g>
    <g transform="matrix(1,0,0,0.63692,17.2148,120.709)">
        <path d="M180,330C180,324.481 177.146,320 173.631,320L106.369,320C102.854,320 100,324.481 100,330L100,350C100,355.519 102.854,360 106.369,360L173.631,360C177.146,360 180,355.519 180,350L180,330Z" style="fill:rgb(193,193,193);stroke:black;stroke-width:0.6px;"/>
    </g>
    <g transform="matrix(1,0,0,0.63692,110.484,120.709)">
        <path d="M180,330C180,324.481 177.146,320 173.631,320L106.369,320C102.854,320 100,324.481 100,330L100,350C100,355.519 102.854,360 106.369,360L173.631,360C177.146,360 180,355.519 180,350L180,330Z" style="fill:rgb(193,193,193);stroke:black;stroke-width:0.6px;"/>
    </g>
    <g transform="matrix(1,0,0,0.63692,204.945,120.709)">
        <path d="M180,330C180,324.481 177.146,320 173.631,320L106.369,320C102.854,320 100,324.481 100,330L100,350C100,355.519 102.854,360 106.369,360L173.631,360C177.146,360 180,355.519 180,350L180,330Z" style="fill:rgb(193,193,193);stroke:black;stroke-width:0.6px;"/>
    </g>
    <g transform="matrix(1,0,0,0.63692,297.558,120.709)">
        <path d="M180,330C180,324.481 177.146,320 173.631,320L106.369,320C102.854,320 100,324.481 100,330L100,350C100,355.519 102.854,360 106.369,360L173.631,360C177.146,360 180,355.519 180,350L180,330Z" style="fill:rgb(193,193,193);stroke:black;stroke-width:0.6px;"/>
    </g>
    <g transform="matrix(1,0,0,0.63692,17.2148,156.186)">
        <path d="M180,330C180,324.481 177.146,320 173.631,320L106.369,320C102.854,320 100,324.481 100,330L100,350C100,355.519 102.854,360 106.369,360L173.631,360C177.146,360 180,355.519 180,350L180,330Z" style="fill:rgb(193,193,193);stroke:black;stroke-width:0.6px;"/>
    </g>
    <g transform="matrix(1,0,0,0.63692,110.484,156.186)">
        <path d="M180,330C180,324.481 177.146,320 173.631,320L106.369,320C102.854,320 100,324.481 100,330L100,350C100,355.519 102.854,360 106.369,360L173.631,360C177.146,360 180,355.519 180,350L180,330Z" style="fill:rgb(193,193,193);stroke:black;stroke-width:0.6px;"/>
    </g>
    <g transform="matrix(1,0,0,0.63692,204.945,156.186)">
        <path d="M180,330C180,324.481 177.146,320 173.631,320L106.369,320C102.854,320 100,324.481 100,330L100,350C100,355.519 102.854,360 106.369,360L173.631,360C177.146,360 180,355.519 180,350L180,330Z" style="fill:rgb(193,193,193);stroke:black;stroke-width:0.6px;"/>
    </g>
    <g transform="matrix(1,0,0,0.63692,297.558,156.186)">
        <path d="M180,330C180,324.481 177.146,320 173.631,320L106.369,320C102.854,320 100,324.481 100,330L100,350C100,355.519 102.854,360 106.369,360L173.631,360C177.146,360 180,355.519 180,350L180,330Z" style="fill:rgb(193,193,193);stroke:black;stroke-width:0.6px;"/>
    </g>
</svg>
