<?xml version="1.0" encoding="UTF-8" standalone="no"?>
<!DOCTYPE svg PUBLIC "-//W3C//DTD SVG 1.1//EN" "http://www.w3.org/Graphics/SVG/1.1/DTD/svg11.dtd">
<svg width="100%" height="100%" viewBox="0 0 600 400" version="1.1" xmlns="http://www.w3.org/2000/svg" xmlns:xlink="http://www.w3.org/1999/xlink" xml:space="preserve" xmlns:serif="http://www.serif.com/" style="fill-rule:evenodd;clip-rule:evenodd;stroke-linecap:round;stroke-linejoin:round;stroke-miterlimit:1.5;">
    <g transform="matrix(1,0,0,1,12.7071,-2.61263)">
        <rect x="140" y="5.225" width="294.586" height="394.775" style="fill:rgb(193,193,193);stroke:black;stroke-width:0.5px;"/>
    </g>
    <g transform="matrix(1,0,0,1,-1.00781,-13.8438)">
        <text x="160px" y="50px" style="font-family:'Georgia', serif;font-size:24px;">Flask (web framework)</text>
    </g>
    <g transform="matrix(0.960935,0,0,0.458827,6.25047,32.4704)">
        <rect x="160" y="60" width="265.367" height="10" style="stroke:black;stroke-width:0.66px;"/>
    </g>
    <g transform="matrix(1.02123,0,0,0.458827,-3.39656,40.1763)">
        <rect x="160" y="60" width="265.367" height="10" style="stroke:black;stroke-width:0.63px;"/>
    </g>
    <g transform="matrix(0.893104,0,0,0.458827,17.1034,47.8821)">
        <rect x="160" y="60" width="265.367" height="10" style="stroke:black;stroke-width:0.7px;"/>
    </g>
    <g transform="matrix(0.930788,0,0,0.458827,11.074,55.4704)">
        <rect x="160" y="60" width="265.367" height="10" style="stroke:black;stroke-width:0.68px;"/>
    </g>
    <g transform="matrix(0.979776,0,0,0.458827,3.23577,63.1763)">
        <rect x="160" y="60" width="265.367" height="10" style="stroke:black;stroke-width:0.65px;"/>
    </g>
    <g transform="matrix(0.535109,0,0,0.458827,74.3826,70.8821)">
        <rect x="160" y="60" width="265.367" height="10" style="stroke:black;stroke-width:1px;"/>
    </g>
    <g transform="matrix(1.01369,0,0,0.458827,-2.19068,87.9704)">
        <rect x="160" y="60" width="265.367" height="10" style="stroke:black;stroke-width:0.64px;"/>
    </g>
    <g transform="matrix(0.900641,0,0,0.458827,15.8975,95.6763)">
        <rect x="160" y="60" width="265.367" height="10" style="stroke:black;stroke-width:0.7px;"/>
    </g>
    <g transform="matrix(0.976008,0,0,0.458827,3.83871,103.382)">
        <rect x="160" y="60" width="265.367" height="10" style="stroke:black;stroke-width:0.66px;"/>
    </g>
    <g transform="matrix(0.859189,0,0,0.458827,22.5298,110.97)">
        <rect x="160" y="60" width="265.367" height="10" style="stroke:black;stroke-width:0.73px;"/>
    </g>
    <g transform="matrix(0.968471,0,0,0.458827,5.04459,118.676)">
        <rect x="160" y="60" width="265.367" height="10" style="stroke:black;stroke-width:0.66px;"/>
    </g>
    <g transform="matrix(1.02123,0,0,0.458827,-3.39656,126.382)">
        <rect x="160" y="60" width="265.367" height="10" style="stroke:black;stroke-width:0.63px;"/>
    </g>
    <g transform="matrix(0.83281,0,0,0.458827,26.7504,134.47)">
        <rect x="160" y="60" width="265.367" height="10" style="stroke:black;stroke-width:0.74px;"/>
    </g>
    <g transform="matrix(1.01369,0,0,0.458827,-2.19068,142.176)">
        <rect x="160" y="60" width="265.367" height="10" style="stroke:black;stroke-width:0.64px;"/>
    </g>
    <g transform="matrix(0.953398,0,0,0.458827,7.45635,149.882)">
        <rect x="160" y="60" width="265.367" height="10" style="stroke:black;stroke-width:0.67px;"/>
    </g>
    <g transform="matrix(0.983545,0,0,0.458827,2.63283,157.47)">
        <rect x="160" y="60" width="265.367" height="10" style="stroke:black;stroke-width:0.65px;"/>
    </g>
    <g transform="matrix(0.923251,0,0,0.458827,12.2799,165.176)">
        <rect x="160" y="60" width="265.367" height="10" style="stroke:black;stroke-width:0.69px;"/>
    </g>
    <g transform="matrix(0.859189,0,0,0.458827,21.5298,302.47)">
        <rect x="160" y="60" width="265.367" height="10" style="stroke:black;stroke-width:0.73px;"/>
    </g>
    <g transform="matrix(0.968471,0,0,0.458827,4.04459,310.176)">
        <rect x="160" y="60" width="265.367" height="10" style="stroke:black;stroke-width:0.66px;"/>
    </g>
    <g transform="matrix(0.983545,0,0,0.458827,1.63283,317.882)">
        <rect x="160" y="60" width="265.367" height="10" style="stroke:black;stroke-width:0.65px;"/>
    </g>
    <g transform="matrix(0.953398,0,0,0.458827,6.45635,325.97)">
        <rect x="160" y="60" width="265.367" height="10" style="stroke:black;stroke-width:0.67px;"/>
    </g>
    <g transform="matrix(1,0,0,0.90796,0,24.4529)">
        <rect x="160" y="224.181" width="143.208" height="95.819" style="fill:rgb(152,152,152);stroke:rgb(65,65,65);stroke-width:0.52px;"/>
    </g>
    <g transform="matrix(1.01369,0,0,0.458827,-3.19068,333.676)">
        <rect x="160" y="60" width="265.367" height="10" style="stroke:black;stroke-width:0.64px;"/>
    </g>
    <g transform="matrix(0.953398,0,0,0.458827,6.45635,341.382)">
        <rect x="160" y="60" width="265.367" height="10" style="stroke:black;stroke-width:0.67px;"/>
    </g>
    <g transform="matrix(0.983545,0,0,0.458827,1.63283,348.97)">
        <rect x="160" y="60" width="265.367" height="10" style="stroke:black;stroke-width:0.65px;"/>
    </g>
    <g transform="matrix(0.923251,0,0,0.458827,11.2799,356.676)">
        <rect x="160" y="60" width="265.367" height="10" style="stroke:black;stroke-width:0.69px;"/>
    </g>
    <g transform="matrix(1.04761,0,0,0.458827,-7.61714,172.882)">
        <rect x="160" y="60" width="265.367" height="10" style="stroke:black;stroke-width:0.62px;"/>
    </g>
    <g transform="matrix(0.46351,0,0,0.458827,85.8385,181.176)">
        <rect x="160" y="60" width="265.367" height="10" style="stroke:black;stroke-width:1.08px;"/>
    </g>
    <g transform="matrix(0.276975,0,0,0.458827,122.184,212.47)">
        <rect x="160" y="60" width="265.367" height="10" style="stroke:black;stroke-width:1.32px;"/>
    </g>
    <g transform="matrix(0.307122,0,0,0.458827,117.36,228.882)">
        <rect x="160" y="60" width="265.367" height="10" style="stroke:black;stroke-width:1.28px;"/>
    </g>
    <g transform="matrix(0.332303,0,0,0.458827,123.649,220.47)">
        <rect x="160" y="60" width="265.367" height="10" style="stroke:black;stroke-width:1.25px;"/>
    </g>
    <g transform="matrix(0.352343,0,0,0.458827,120.443,237.882)">
        <rect x="160" y="60" width="265.367" height="10" style="stroke:black;stroke-width:1.22px;"/>
    </g>
    <g transform="matrix(0.276975,0,0,0.458827,132.502,246.47)">
        <rect x="160" y="60" width="265.367" height="10" style="stroke:black;stroke-width:1.32px;"/>
    </g>
    <g transform="matrix(0.307122,0,0,0.458827,116.86,262.882)">
        <rect x="160" y="60" width="265.367" height="10" style="stroke:black;stroke-width:1.28px;"/>
    </g>
    <g transform="matrix(0.332303,0,0,0.458827,123.649,254.47)">
        <rect x="160" y="60" width="265.367" height="10" style="stroke:black;stroke-width:1.25px;"/>
    </g>
    <g transform="matrix(0.352343,0,0,0.458827,109.625,271.882)">
        <rect x="160" y="60" width="265.367" height="10" style="stroke:black;stroke-width:1.22px;"/>
    </g>
</svg>
